<svg xmlns="http://www.w3.org/2000/svg" viewBox="0 0 211.69 55.3"><defs><style>.cls-1{fill:#00c1de;}.cls-2{fill:#fff;}</style></defs><title>icore</title><g id="Camada_2" data-name="Camada 2"><g id="Camada_1-2" data-name="Camada 1"><path class="cls-1" d="M10.46,31.55V22.07a6,6,0,0,1,.08-1,5.28,5.28,0,0,1,2.19-3.35l0,0a4.14,4.14,0,0,1,.5-.3l1.27-.76L22,12.2V0l-7.2,4.33-4.3,2.59L4.38,10.58l-1.56.94-.56.34a5.16,5.16,0,0,0-2.1,3A5,5,0,0,0,0,16.16V37.82l7.35-4.41Z"/><path class="cls-1" d="M47.46,11.83l-.05,0L47,11.56h0l-1.6-1L39.31,6.92,35,4.34,27.81,0V12.19l7.45,4.48,1.53.92a5.25,5.25,0,0,1,2.43,3.52,5,5,0,0,1,.09,1v9.47l3.13,1.87,7.33,4.4V16.16a5.41,5.41,0,0,0-.16-1.28,5.25,5.25,0,0,0-2.15-3.05"/><path class="cls-1" d="M36.76,36.83,27.9,42.16h0l-.07,0a5.79,5.79,0,0,1-.54.31h0a5.27,5.27,0,0,1-4.73,0h0A3.92,3.92,0,0,1,22,42.2l-.06,0h0L13,36.83l-2.58,1.54L2.88,42.91l7.57,4.56,4.3,2.59,7.14,4.29.07,0,.56.34a5.23,5.23,0,0,0,4.75,0l0,0,.5-.31.08,0h0L35,50.06l4.28-2.58,7.6-4.57-7.6-4.55Z"/><rect class="cls-2" x="63.59" y="6.89" width="8.27" height="8.36"/><polygon class="cls-2" points="63.59 25.64 63.59 47.6 71.87 47.6 71.87 18.52 63.59 18.52 63.59 25.64"/><path class="cls-2" d="M98.87,15.12c4.57,0,8.68,2.28,10.45,6.51h9.08C115.72,12.09,108,6.89,98.87,6.89c-12.22,0-20.67,9-20.67,20.73s8.45,20.79,20.67,20.79c9.14,0,16.85-5.15,19.53-14.74h-9.08a11,11,0,0,1-10.45,6.46C92,40.13,87,34.81,87,27.62s5-12.5,11.87-12.5"/><path class="cls-2" d="M211.69,32.53c0-8.91-5.77-15.76-15-15.76-8.39,0-15.36,6.4-15.36,15.82,0,9.08,6.4,15.76,15.59,15.76,1.54,0,6.69,0,10.68-4a13.77,13.77,0,0,0,3.6-6.47H203A6.92,6.92,0,0,1,196.79,41c-3.94,0-6.85-2.4-6.91-6.34h21.81ZM189.94,29.1a6.59,6.59,0,0,1,6.73-5.42,6.45,6.45,0,0,1,6.63,5.42Z"/><polygon class="cls-2" points="159.84 47.61 168.13 47.61 168.13 25.05 178.74 25.05 178.74 16.77 159.84 16.77 159.84 47.61"/><path class="cls-2" d="M138.38,17c-9.18,0-15.95,6.65-15.95,15.56s6.77,15.56,15.95,15.56,16-6.65,16-15.56S147.59,17,138.38,17m0,23.7c-4.48,0-7.84-3.35-7.84-8.14s3.36-8.14,7.84-8.14a7.75,7.75,0,0,1,7.87,8.14,7.75,7.75,0,0,1-7.87,8.14"/></g></g></svg>